<svg xmlns="http://www.w3.org/2000/svg" viewBox="0 0 128 128"><g fill="none" fill-rule="evenodd"><path stroke="#A9A9A9" d="M65.008 24.36l52.426 18.705a3 3 0 011.992 2.826v35.322a3 3 0 01-1.992 2.826l-52.426 18.705a3 3 0 01-2.016 0L10.566 84.04a3 3 0 01-1.992-2.826V45.891a3 3 0 011.992-2.826L62.992 24.36a3 3 0 012.016 0z"/><g fill="#A9A9A9" transform="translate(37 50)"><g transform="translate(1.788 .083)"><rect width="38" height="4" x="2.39" rx="2"/><path d="M6.063 3.251L4.689 7.01a2.002 2.002 0 01-2.56 1.196 1.986 1.986 0 01-1.192-2.55l1.374-3.758A2.002 2.002 0 014.871.7a1.986 1.986 0 011.192 2.55z"/></g><rect width="38" height="4" y="11.833" rx="2"/><g transform="translate(13.5 19)"><rect width="38" height="4" y="5.129" rx="2"/><path d="M39.744 3.698l-1.374 3.76a2 2 0 01-2.56 1.195 1.989 1.989 0 01-1.191-2.552l1.374-3.76a2 2 0 012.56-1.195 1.989 1.989 0 011.191 2.552z"/></g></g></g></svg>